<svg xmlns="http://www.w3.org/2000/svg" width="1442.614" height="237.502" viewBox="0 0 1442.614 237.502">
  <g id="Group_625" data-name="Group 625" transform="translate(0 -435)">
    <path id="Path_7208" data-name="Path 7208" d="M1433.338,640.178V616.433h-31.812v23.745h-4.3V603.056h-31.812v37.122H1349.5V588.142h-4.872V563.759h-2.579v24.383h-5.589V563.759h-2.579v24.383h-10.748V605.9h-7.41v-41.32h-20.963v25.03h-40.41v50.566h-8.6v-53.2l-40.409-30.093v37.708l-33.532,24.257v21.333h-49.008V607.6H1101.69v32.576h-4.143l-28.716-71.5-88.312-61.942s-15.946-14.719-43.543-1.84a473.687,473.687,0,0,0-52.742,29.438L767.71,567.454s-27.034.013-41.184,61.131H715.8v-52.6h.754v-3.541H696.5v-4.359h.278l-45.114-18.922-45.042,18.892h-.1v4.389H585.749v3.541h.755v58.824h73.17v5.365H568V505.954H537.7V640.178H526.95V612.3h-14.4v-3.217h.713v-1.23h-.713v-3.779h.713v-1.231h-.713v-3.779h.713v-1.23h-.713v-3.779h.713v-1.23h-.713V589.05h.713v-1.231h-.713V584.04h.713v-1.23h-.713v-3.779h.713V577.8h-.713v-3.779h.713v-1.231h-.713v-3.778h.713v-1.231h-.713V564h.713v-1.23h-.713v-3.779h.713v-1.23h-.713v-3.78h.713v-1.23h-.713v-3.779h.713v-1.23h-.713v-3.428h-6.408V532.69H452.3v11.627h-5.692v-6.686H437.7c2.557-8.306,8.382-11.416,8.988-11.719h.077v-3.033H414.137v3.033h.014c.053.024,6.319,2.943,8.929,11.719h-8.292v91.318h69.545v11.229H385.7v-10.1h11.255V527.456H364.7v75.312h-25.86V573.346H320.723v-71.3H275.764V602.768h-3.188V573.346h-27.54v29.422H214.329l1.437-63.865h-7.017l.224-4.465h-1.309v-3.849h6.7v-2.156H101.2v2.156h7.64v3.849h-1.309l.224,4.465h-4.4v96.643H112.6l.008.154h15.53v.154h60.969V635.7h13.335v4.478H45.369v-1.3h2.579V535.344h-26.3v66.384H2.751v43.836h.191V671.13H1439.236V640.178ZM189.194,530.589h9.078v3.849h-5.549l.16-.16Zm2.76,3.849h-3.535v-3.849h.315l-.315.314Zm14.94,0h-7.852v-3.849h7.852Zm-79.124-3.849h.315v3.849h-3.536l3.535-3.535Zm-3.989,3.849h-5.55v-3.849h9.078l-3.689,3.689Zm-14.172-3.849h7.852v3.849h-7.852Zm20.457,39.179,1.021-35.33h-2.233v-3.849h58.795v3.849h-2.232l.142,4.926H163.113A84.065,84.065,0,0,1,130.066,569.768Z" transform="translate(0 1.372)" fill="#3f6e3e"/>
    <g id="Group_611" data-name="Group 611" transform="translate(0 1.372)">
      <path id="Path_7209" data-name="Path 7209" d="M488.144,553.23v93.4H655.255v-93.4l1.646-7.688H623.721v-8.377H602.807V529.5l4.2-8.381h-25v-7.674h-9.213v-9.67h-2.189v9.67h-9.213v7.674h-25l4.2,8.381v7.663H518.609v8.377H486.5Z" fill="#295338"/>
      <path id="Path_7210" data-name="Path 7210" d="M1100.774,648.052h67.164V610.769H1143.22v-8.181h-.508l-22.9-20.744-22.9,20.744h-.262v.238l-.109.1h.109v7.844h-28.689v37.283h32.812Z" fill="#295338"/>
      <path id="Path_7211" data-name="Path 7211" d="M693.955,644.724h22.457V491.462H693.955V433.628H668.13v211.1h25.825Z" fill="#295338"/>
      <path id="Path_7212" data-name="Path 7212" d="M273.381,593.54l49.5.029.006-11.162h1.241v-1.83h-1.19c-.49-15.858-10.13-28.709-22.377-30.217V549.1h-.368v-.789a1.08,1.08,0,0,0-1.079-1.08h-.3l.005-8.841a.348.348,0,0,0-.347-.348h-.588a.347.347,0,0,0-.347.347l-.005,8.841h-.3a1.078,1.078,0,0,0-1.08,1.078v.79h-.4v1.256c-12.253,1.494-21.9,14.333-22.412,30.191h-1.19v1.829h1.241Z" fill="#295338"/>
      <path id="Path_7213" data-name="Path 7213" d="M251.039,608.626h-.927l-10.881-5.111-10.977-5.156L217.27,603.5l-10.886,5.1h-.928v1.438l45.583.027Z" fill="#295338"/>
      <path id="Path_7214" data-name="Path 7214" d="M392.621,608.708h-.927L380.813,603.6l-10.977-5.156-10.983,5.144-10.886,5.1h-.927v1.438l45.583.026Z" fill="#295338"/>
      <path id="Path_7215" data-name="Path 7215" d="M1211.589,648.524V633.37h-41.743v15.154H1055.032V593.266h-21.589V580.9h-30.936v67.629H991.43V605.659H966.881V552.013H932.61v96.511h-.1V583.268H901.419v65.256H879.5v-113.6l-12.944-7.816h-13.74v-3.979H829.58v3.979H817.325V648.524H805.654V527.11H793.4v-3.979H770.164v3.979h-13.74l-12.944,7.816v113.6H484.036V531.17H454.2V552H411.64v9.516h2.231v14.17H411.64V585.2h2.231v14.17H411.64v9.516h2.231v14.17H411.64v9.515h2.231v14.17H411.64v1.785h-4.451v-1.569l-5.3,0,.018-32.12-10.237-.006,0-4.665-43.692-.025,0,4.665-9.586-.006,0-7.727h2.065v-.958l-4.574,0,.007-11.749h.929v-.766l-77.393-.045v.767h.929l-.006,11.749h-4.574v.958h2.065l0,7.727-7.752,0,0-4.665-43.692-.025,0,4.664-9.761-.005-.019,32.12-5.3,0v1.694h-9.337V612.518H154.227v36.006H133.456V581.067h-12.23V583.4H103.18v-2.331H96.269v-2.605H92.1V576.37h.393v-2.723h-.468l-10.133-6.119-10.133,6.119h-.382v2.723H71.7v2.092H66.745v2.605H60.821v-8.4H54.968V583.4H44.742v-6.65h-.109L41.239,573.6l-3.395,3.146h-.092v1.365H27.286v-1.365H20.3v48.5H3.4V655.6H9.266v5.754H1248.893V648.524ZM88.471,578.462H83.714V576.37h4.757ZM75.329,576.37h4.757v2.092H75.329Z" fill="#295338"/>
    </g>
    <g id="Group_622" data-name="Group 622">
      <g id="Group_612" data-name="Group 612" transform="translate(0 1.372)">
        <path id="Path_7216" data-name="Path 7216" d="M607.411,615.387a.552.552,0,0,0-.417-.508c-.026-.029-.029-.062.017-.1h0c.11-.02.183-.054.183-.093s-.05-.059-.129-.082a.065.065,0,0,1,.014-.034l.008-.015v0a.36.36,0,0,0,.136-.281.375.375,0,0,0-.195-.317v0a.111.111,0,0,1-.036-.021l0,0c-.034-.023-.062-.073.008-.142a.948.948,0,0,0,.181-.253.21.21,0,0,0,.014-.031.473.473,0,0,0,.022-.067.281.281,0,0,0,.009-.07v-.013a.393.393,0,0,0-.124-.283l-.006-.006-.006-.01a.8.8,0,0,1-.206-.3.892.892,0,0,0,.317-.092.724.724,0,0,0,.436-.822.678.678,0,0,1-.378.506.671.671,0,0,1-.993-.618c.053-.453.59-.57.59-.57-.781,0-1.01.531-.935.969a.853.853,0,0,0,.755.629.8.8,0,0,1-.208.294.1.1,0,0,0-.011.021.38.38,0,0,0-.121.278.327.327,0,0,0,.033.16.965.965,0,0,0,.192.274c.059.062.045.106.019.134-.005,0-.008.008-.013.01a.12.12,0,0,1-.037.021v0a.368.368,0,0,0-.2.317.36.36,0,0,0,.135.281v0l.008.015a.051.051,0,0,1,.014.034v0c-.078.021-.129.049-.129.08s.073.073.186.093h0c.043.042.04.078.018.1a.55.55,0,0,0-.417.508.639.639,0,0,0,1.262,0Z" fill="#072c2b"/>
        <path id="Path_7217" data-name="Path 7217" d="M686.238,615.387a.552.552,0,0,0-.417-.508c-.025-.029-.028-.062.017-.1h0c.11-.02.184-.054.184-.093s-.051-.059-.13-.082a.066.066,0,0,1,.014-.034l.009-.015v0a.363.363,0,0,0,.135-.281.375.375,0,0,0-.2-.317v0a.112.112,0,0,1-.036-.021l0,0c-.034-.023-.062-.073.008-.142a.95.95,0,0,0,.181-.253.21.21,0,0,0,.014-.031.48.48,0,0,0,.022-.067.281.281,0,0,0,.009-.07v-.013a.392.392,0,0,0-.124-.283l-.006-.006-.005-.01a.791.791,0,0,1-.207-.3.891.891,0,0,0,.317-.092.724.724,0,0,0,.436-.822.69.69,0,0,1-1.371-.112c.053-.453.59-.57.59-.57-.781,0-1.01.531-.935.969a.853.853,0,0,0,.755.629.8.8,0,0,1-.208.294.1.1,0,0,0-.011.021.381.381,0,0,0-.122.278.342.342,0,0,0,.034.16.983.983,0,0,0,.192.274c.059.062.045.106.02.134l-.015.01a.112.112,0,0,1-.036.021v0a.368.368,0,0,0-.2.317.359.359,0,0,0,.135.281v0l.008.015a.048.048,0,0,1,.015.034v0c-.079.021-.13.049-.13.08s.073.073.186.093h0c.042.042.039.078.016.1a.551.551,0,0,0-.416.508.639.639,0,0,0,1.262,0Z" fill="#072c2b"/>
        <path id="Path_7218" data-name="Path 7218" d="M646.971,585.773a1.536,1.536,0,0,0-1.159-1.413c-.071-.079-.078-.172.047-.287h.008c.3-.057.509-.15.509-.258,0-.086-.142-.165-.361-.229a.161.161,0,0,1,.04-.094l.023-.043v-.007a1.008,1.008,0,0,0,.376-.782,1.052,1.052,0,0,0-.54-.882v-.007a.344.344,0,0,1-.1-.057s-.008,0-.008-.007c-.094-.065-.172-.2.024-.395a2.577,2.577,0,0,0,.5-.7.393.393,0,0,0,.04-.086,1.309,1.309,0,0,0,.062-.186.805.805,0,0,0,.024-.194v-.036a1.1,1.1,0,0,0-.345-.789c-.008-.007-.008-.014-.015-.014a.088.088,0,0,0-.016-.029,2.151,2.151,0,0,1-.578-.821,2.542,2.542,0,0,0,.885-.257,2.011,2.011,0,0,0,1.211-2.286,1.918,1.918,0,0,1-3.809-.311c.148-1.257,1.639-1.582,1.639-1.582-2.17,0-2.805,1.475-2.6,2.691a2.37,2.37,0,0,0,2.1,1.749,2.165,2.165,0,0,1-.583.817.306.306,0,0,0-.031.058,1.058,1.058,0,0,0-.337.774.91.91,0,0,0,.094.445,2.627,2.627,0,0,0,.532.76c.165.172.125.294.055.373-.016.007-.024.022-.039.029a.344.344,0,0,1-.1.057v.007a1.022,1.022,0,0,0-.548.882,1.008,1.008,0,0,0,.376.782v.007l.023.043a.136.136,0,0,1,.039.094v.007c-.219.057-.36.136-.36.222,0,.108.2.2.517.258h.008c.117.115.109.215.047.287a1.535,1.535,0,0,0-1.159,1.413,1.776,1.776,0,0,0,3.508,0Z" fill="#072c2b"/>
        <path id="Path_7219" data-name="Path 7219" d="M588.229,550.311h-2.068v1.948h.016l1.107,2.305h9l1.108-2.305h.015v-1.948h-2.068v-6.084h2.639a49.91,49.91,0,0,1-4.68-13.054,61.487,61.487,0,0,1-1.19-7.254c.4-.062.7-.233.7-.442,0-.189-.242-.349-.586-.424v-2.924c.344-.076.586-.236.586-.425,0-.221-.334-.4-.775-.449v-4.121a2.855,2.855,0,0,0,1.07-.3,2.249,2.249,0,0,0,1.355-2.557,2.146,2.146,0,0,1-4.262-.349c.165-1.407,1.833-1.77,1.833-1.77-2.428,0-3.138,1.65-2.907,3.011a2.664,2.664,0,0,0,2.436,1.967v4.115c-.441.051-.775.228-.775.449,0,.189.242.349.586.425v2.924c-.344.075-.586.235-.586.424s.275.371.657.438a64.886,64.886,0,0,1-1.236,7.258,50.7,50.7,0,0,1-4.559,12.842l-.059.212h2.639Z" fill="#072c2b"/>
        <path id="Path_7220" data-name="Path 7220" d="M696.78,550.311h-2.068v1.948h.015l1.108,2.305h9l1.108-2.305h.015v-1.948h-2.068v-6.084h2.639a49.941,49.941,0,0,1-4.681-13.054,61.475,61.475,0,0,1-1.189-7.254c.4-.062.7-.233.7-.442,0-.189-.241-.349-.585-.424v-2.924c.344-.076.585-.236.585-.425,0-.221-.333-.4-.774-.449v-4.121a2.855,2.855,0,0,0,1.07-.3,2.247,2.247,0,0,0,1.354-2.557,2.145,2.145,0,0,1-4.261-.349c.165-1.407,1.833-1.77,1.833-1.77-2.428,0-3.138,1.65-2.907,3.011a2.664,2.664,0,0,0,2.435,1.967v4.115c-.44.051-.774.228-.774.449,0,.189.242.349.585.425v2.924c-.343.075-.585.235-.585.424s.275.371.657.438a64.676,64.676,0,0,1-1.237,7.258,50.739,50.739,0,0,1-4.558,12.842l-.059.212h2.639Z" fill="#072c2b"/>
        <path id="Path_7221" data-name="Path 7221" d="M972.489,598.77h44.949V588.634h1.127v-1.662h-1.081c-.454-14.4-9.214-26.064-20.336-27.428V558.4h-.334v-.617a1.08,1.08,0,0,0-1.08-1.08h-.173v-8a.347.347,0,0,0-.347-.347h-.471a.347.347,0,0,0-.347.347v8h-.174a1.08,1.08,0,0,0-1.079,1.08v.617h-.364v1.141c-11.126,1.363-19.883,13.028-20.336,27.428h-1.081v1.662h1.127Z" fill="#072c2b"/>
        <path id="Path_7222" data-name="Path 7222" d="M952.209,612.48h-.842l-9.883-4.635-9.971-4.677-9.971,4.677-9.883,4.635h-.842v1.306h41.393Z" fill="#072c2b"/>
        <path id="Path_7223" data-name="Path 7223" d="M1080.776,612.48h-.842l-9.884-4.635-9.971-4.677-9.971,4.677-9.883,4.635h-.842v1.306h41.393Z" fill="#072c2b"/>
        <path id="Path_7224" data-name="Path 7224" d="M1405.115,655.671V637.212h-18.8v-18.8H1362.56v37.26h-16.442V637.212h-38.687v-7.121L1269.712,602.8V563.356l-45.457,33.851v58.464h-9.671V597.207h-45.457V570.663h-23.581v46.481h-8.336V597.166h-12.089V571.094h-2.9v26.072h-6.287V571.094h-2.9v26.072h-5.481v58.505h-13.524V647.2h-4.812V618.036h-9.3V613.8h-39.676v4.235h-8.7V611.02h1.875v-.87h-4.154V599.48h.844v-.7H959.824v.7h.843v10.67h-4.153v.87h1.875v7.016H951.35V613.8H911.674v4.235H902.81V647.2H898v8.467h-5.67c.585-9.642,1.132-45.189-19.994-69.614h0v-1.092q-.254.274-.481.55h0c-.16-.184-.32-.367-.488-.55v.959L837.79,614.04l-13.341-13-23.54,4.564V474.759l-2.721-4.642h-2.214l-2.769-7.58v-8.9h3.014V452.4h-3.014v-3.486h-1.24V452.4h-3.014v1.239h3.014v8.9l-2.769,7.58h-2.318l-2.721,4.642V606.514h-1.4v1.238l-57.605,19.056-.115-.115c-.088.079-.167.159-.246.238-9.735,9.611-10.392,23.2-10.208,28.74h-7.639l-.591-4.761.764-1.367h-3.323V554.572H696.88v70.49h-6.773L689.68,622a1.225,1.225,0,0,1,.087-.369c.049-.133.107-.262.145-.343h-.21a3.783,3.783,0,0,0,.039-.428,3.933,3.933,0,0,0-2.962-3.728.569.569,0,0,0,.02-.091v-.166a.992.992,0,0,0-1.033-.947h-.319a.993.993,0,0,0-1.033.947v.166a.7.7,0,0,0,.02.091,3.932,3.932,0,0,0-2.961,3.728,3.783,3.783,0,0,0,.038.428h-.21a2.29,2.29,0,0,1,.232.712l-.426,3.064H678.6l-1.12-1-1.191,1h-.642l-1.121-1-1.19,1h-.727l-1.12-1-.746.626-.208-1.03-.471-2.332h1.2l1.189-1.272-1.189-1.246h-1.005c-.06-13.06-9.6-25.934-21.879-27.741a1.758,1.758,0,0,0,.151-.7V589.9a2.759,2.759,0,0,0-2.871-2.63h-.886a2.758,2.758,0,0,0-2.871,2.63v.461a1.761,1.761,0,0,0,.18.77c-12.081,2.034-21.4,14.764-21.46,27.675h-1.005l-1.19,1.267,1.19,1.251h1.2l-.47,2.332-.152.751-.777.652h-.727l-1.12-1-1.191,1h-.642l-1.121-1-1.191,1H611.28L610.853,622a1.225,1.225,0,0,1,.087-.369c.048-.133.107-.262.145-.343h-.21a3.783,3.783,0,0,0,.038-.428,3.932,3.932,0,0,0-2.961-3.728.575.575,0,0,0,.02-.091v-.166a.993.993,0,0,0-1.033-.947h-.319a.993.993,0,0,0-1.033.947v.166a.709.709,0,0,0,.02.091,3.932,3.932,0,0,0-2.961,3.728,3.783,3.783,0,0,0,.038.428h-.21a2.29,2.29,0,0,1,.232.712l-.427,3.064h-7.035v-70.49h-6.915v94.971h-3.881l.765,1.367-.592,4.761H564.667v-96.85H549.578V561.7H527.313v-2.874h-8.526v-3.215h-5.145v-2.581h.486v-3.359h-.578l-12.5-7.549-12.5,7.549h-.471v3.359h.4v2.581h-6.116v3.215h-7.308V548.458h-7.222V561.7H455.215v-8.2h-.134l-4.188-3.881-4.188,3.881h-.115v1.684H433.679v-1.684h-8.625V655.671h-3.743A75.465,75.465,0,0,1,378.4,597.822V558.013H371.55v4.36l-21.906,13.414H342.3l-22-13.47v-4.3h-6.847v39.809a75.472,75.472,0,0,1-42.913,57.849h-9.588V560.8l-10.308-6.225H239.708v-3.168H221.2v3.168h-9.759v101.1H202.15v-101.1h-9.759v-3.168H173.886v3.168H162.944L152.636,560.8v94.87H142.547V632.458h0V631h-3.383v1.461h-4.971V631H130.8v1.458h-4.973V631H122.45v1.458h-4.973V631h-3.388v1.458h-4.971V631h-3.264V616.939h1.984v-7.5h.15v-1.381H105.78V609.1h-1.935v-1.039h-2.208V609.1H99.7v-1.039H97.5V609.1H95.56v-1.039H93.352v8.88h2.236v11.27h-37.1v-11.27h1.984v-7.5h.151v-1.381H58.415V609.1H56.481v-1.039H54.273V609.1H52.338v-1.039H50.13V609.1H48.195v-1.039H45.987v8.88h2.236V631H44.859v1.461H39.888V631H36.5v1.458H31.527V631H28.145v1.458H23.172V631H19.784v1.458H14.813V631H11.43v1.461h0v23.213H0V671.13H1442.614V655.671Zm-522.9,0H861.47c-.219-6.147.248-22.394,10.137-33.82.074-.089.163-.179.237-.268.089.089.164.179.253.268C881.973,633.277,882.438,649.524,882.219,655.671ZM764.244,643.677c.035.035.079.071.115.106,3.826,3.78,4.6,8.886,4.7,11.888h-9.621c.093-3,.869-8.108,4.7-11.888C764.165,643.748,764.209,643.712,764.244,643.677Zm-19.154-.52c.036.044.08.079.115.115,4,3.95,4.782,9.3,4.868,12.4h-9.967c.083-3.1.863-8.449,4.861-12.4A1.443,1.443,0,0,0,745.09,643.157Zm-19.851.115a1.451,1.451,0,0,0,.124-.115,1.381,1.381,0,0,0,.115.115c4,3.95,4.782,9.3,4.868,12.4h-9.968C720.461,652.575,721.241,647.222,725.239,643.272ZM509.166,555.606H503.3v-2.581h5.869Zm-16.214-2.581h5.87v2.581h-5.87ZM320.306,594.413v-2.141l21.881-9.285v.038Zm21.881-11.743-21.881,9.285V564.31L342.187,576.4Zm-21.881,12.072,22.046-11.474h7.166L371.55,597.75v13.162h0v-8.877H320.306Zm51.244.017L349.669,582.67v-6.2L371.55,566.04ZM349.669,583l21.881,12.089V597.4l-21.881-14.383Zm-27.417,28.161H369.6v44.506H322.252Zm49.3-45.448-21.881,10.431v-.034l21.881-13.4Zm-29.363,10.341v.007l-21.881-12.089V562.66ZM134.642,640.71c1.148,0,2.19,2.474,2.19,2.474v7.771h-4.274v-7.771a4.592,4.592,0,0,1,1.635-2.24A1.859,1.859,0,0,1,134.642,640.71Zm-13.06,2.474a5.369,5.369,0,0,1,.868-1.524,2.932,2.932,0,0,1,1.216-.95c1.042,0,2,2.033,2.166,2.414v7.831h-4.25Zm-10.975,0a3.9,3.9,0,0,1,2.084-2.474c.512,0,1,.495,1.4,1.044a8.748,8.748,0,0,1,.792,1.43v7.771h-4.274ZM65.794,637.9v-2.12a.3.3,0,0,1,.047-.02,26.848,26.848,0,0,1,22.018,0,.226.226,0,0,1,.041.02v2.12h1.969v17.772H63.825V637.9ZM41.286,640.71a3.9,3.9,0,0,1,2.084,2.474v7.771H39.1v-7.771a8.748,8.748,0,0,1,.792-1.43C40.281,641.205,40.774,640.71,41.286,640.71Zm-10.976,0a2.931,2.931,0,0,1,1.217.95,5.369,5.369,0,0,1,.868,1.524v7.771h-4.25v-7.831C28.314,642.743,29.268,640.71,30.31,640.71Zm-13.165,2.474s1.042-2.474,2.19-2.474a1.859,1.859,0,0,1,.449.234,4.592,4.592,0,0,1,1.635,2.24v7.771H17.145Z" fill="#072c2b"/>
      </g>
    </g>
  </g>
</svg>
